<?xml version="1.0" encoding="UTF-8" standalone="no"?>
<svg
   version="1.1"
   width="694.67706"
   height="694.67706"
   id="svg1"
   sodipodi:docname="Midjourney_Emblem - Copy.svg"
   xml:space="preserve"
   inkscape:version="1.3 (0e150ed6c4, 2023-07-21)"
   xmlns:inkscape="http://www.inkscape.org/namespaces/inkscape"
   xmlns:sodipodi="http://sodipodi.sourceforge.net/DTD/sodipodi-0.dtd"
   xmlns="http://www.w3.org/2000/svg"
   xmlns:svg="http://www.w3.org/2000/svg"><defs
     id="defs1" /><sodipodi:namedview
     id="namedview1"
     pagecolor="#ffffff"
     bordercolor="#000000"
     borderopacity="0.25"
     inkscape:showpageshadow="2"
     inkscape:pageopacity="0.0"
     inkscape:pagecheckerboard="0"
     inkscape:deskcolor="#d1d1d1"
     inkscape:zoom="1.0732422"
     inkscape:cx="431.86897"
     inkscape:cy="419.75614"
     inkscape:window-width="2560"
     inkscape:window-height="1334"
     inkscape:window-x="-11"
     inkscape:window-y="-11"
     inkscape:window-maximized="1"
     inkscape:current-layer="svg1" /><rect
     style="fill:#4093d4;fill-opacity:1;stroke:none;stroke-width:4.10242;stroke-linecap:round"
     id="rect3"
     width="694.67706"
     height="694.67706"
     x="0"
     y="0" /><path
     id="hull"
     d="m 478.53853,610.13853 c 60.3,-28 119.9,-62.2 166.3,-104.4 l -589.999999,38 22.9,43.8 130.031899,89.40425 z"
     style="fill:#ffffff;stroke:#ffffff;stroke-width:18px;stroke-linecap:round;stroke-linejoin:round"
     sodipodi:nodetypes="cccccc" /><path
     id="front_sail"
     d="m 289.73853,135.73853 c 100.4,30.7 240.8,179 288.6,338.4 -26.2,-10.3 -45.8,-20.8 -82.6,-11.4 -35.6,-129.5 -99.3,-253.2 -206,-327 z"
     style="fill:#ffffff;fill-opacity:1;stroke:#ffffff;stroke-width:18px;stroke-linecap:round;stroke-linejoin:round" /><path
     id="rear_sail"
     d="m 103.03853,64.838531 c 128.6,54.999999 305,208.099999 337.4,411.999999 -148.3,-59.8 -261.2,-27.9 -339.8,20.6 119.9,-152.4 66.1,-325.7 2.4,-432.599999 z"
     style="fill:#ffffff;fill-opacity:1;stroke:#ffffff;stroke-width:18px;stroke-linecap:round;stroke-linejoin:round" /><path
     id="waves"
     style="fill:#172c50;fill-opacity:1;stroke:none;stroke-width:18px;stroke-linecap:round;stroke-linejoin:round"
     d="m 94.338531,587.33853 c -2.1875,0 -4.29688,0.16504 -6.33789,0.47266 -28.57399,4.30657 -43.75023,36.74811 -72.32422,41.05468 -2.04101,0.30762 -4.15039,0.47266 -6.3378895,0.47266 -2.1875,0 -4.29688,-0.16504 -6.33789,-0.47266 -1.03292,-0.15567 -2.00082001,-0.44751 -3.00000000586,-0.67382 v 66.48437 H 694.67642 v -65.73633 c -1.73735,0.2205 -3.49554,0.39844 -5.33789,0.39844 -2.1875,0 -4.29688,-0.16504 -6.33789,-0.47266 -2.04101,-0.30761 -4.01374,-0.75781 -5.92773,-1.33203 -7.65624,-2.29687 -14.37501,-6.56256 -20.78126,-11.48437 -16.01549,-12.30462 -30.07829,-28.71094 -51.95312,-28.71094 -2.0804,0 -4.07974,0.17047 -6.02734,0.44922 -0.61315,0.0879 -1.19386,0.24417 -1.79493,0.35742 -1.30968,0.24642 -2.61076,0.51075 -3.86718,0.86914 -0.68087,0.19452 -1.33946,0.43528 -2.00586,0.66016 -1.14206,0.38475 -2.27581,0.78735 -3.37891,1.2539 -0.64972,0.27527 -1.2884,0.57382 -1.92578,0.875 -1.10806,0.5227 -2.20284,1.07286 -3.27734,1.66602 -0.55527,0.30706 -1.10902,0.61748 -1.65625,0.94141 -1.19798,0.70784 -2.37851,1.45224 -3.54297,2.23046 -0.3749,0.25101 -0.75312,0.49461 -1.125,0.75196 -0.82662,0.57103 -1.63374,1.18272 -2.44727,1.78125 -1.43981,1.06117 -2.85421,2.17587 -4.26367,3.30078 -3.09453,2.46538 -6.1687,4.97284 -9.22266,7.52344 -0.9584,0.8018 -1.93267,1.57093 -2.89648,2.36132 -3.74126,3.06331 -7.53056,6.02709 -11.51758,8.57422 -0.21305,0.13629 -0.42842,0.26837 -0.64258,0.40235 -1.276,0.79732 -2.57273,1.55256 -3.89258,2.25781 -0.30284,0.16201 -0.61247,0.31022 -0.91796,0.4668 -1.29558,0.66341 -2.60629,1.29191 -3.95313,1.84765 -0.30463,0.12579 -0.62218,0.224 -0.92969,0.34375 -1.39496,0.54294 -2.80644,1.05664 -4.26562,1.46485 -3.5949,1.0055 -7.37552,1.62109 -11.44922,1.62109 -34.99975,0 -50.00025,-42 -85,-42 -34.99975,0 -50.00025,42 -85,42 -2.1875,0 -4.29688,-0.16504 -6.33789,-0.47266 -2.04101,-0.30761 -4.01374,-0.75781 -5.92773,-1.33203 -7.65624,-2.29687 -14.37501,-6.56256 -20.78126,-11.48437 -16.01549,-12.30462 -30.07829,-28.71094 -51.95312,-28.71094 -2.0804,0 -4.07974,0.17047 -6.02734,0.44922 -0.61315,0.0879 -1.19386,0.24417 -1.79493,0.35742 -1.30968,0.24642 -2.61076,0.51075 -3.86718,0.86914 -0.68087,0.19452 -1.33946,0.43528 -2.00586,0.66016 -1.14206,0.38475 -2.27581,0.78735 -3.37891,1.2539 -0.64972,0.27527 -1.2884,0.57382 -1.92578,0.875 -1.10806,0.5227 -2.20284,1.07286 -3.27734,1.66602 -0.55527,0.30706 -1.10902,0.61748 -1.65625,0.94141 -1.19798,0.70784 -2.37851,1.45224 -3.54297,2.23046 -0.3749,0.25101 -0.75312,0.49461 -1.125,0.75196 -0.82662,0.57103 -1.63374,1.18272 -2.44727,1.78125 -1.43981,1.06117 -2.85421,2.17587 -4.26367,3.30078 -3.09453,2.46538 -6.1687,4.97284 -9.22266,7.52344 -0.9584,0.8018 -1.93267,1.57093 -2.89648,2.36132 -3.74126,3.06331 -7.53056,6.02709 -11.51758,8.57422 -0.21305,0.13629 -0.42842,0.26837 -0.64258,0.40235 -1.276,0.79732 -2.57273,1.55256 -3.89258,2.25781 -0.30284,0.16201 -0.61247,0.31022 -0.91796,0.4668 -1.29558,0.66341 -2.60629,1.29191 -3.95313,1.84765 -0.30463,0.12579 -0.62218,0.224 -0.92969,0.34375 -1.39496,0.54294 -2.80644,1.05664 -4.26562,1.46485 -3.5949,1.0055 -7.37552,1.62109 -11.44922,1.62109 -13.12491,0 -23.4375,-5.90632 -33.04688,-13.28906 -16.01549,-12.30462 -30.07829,-28.71094 -51.953119,-28.71094 z" /></svg>