<?xml version="1.0" encoding="UTF-8"?>
<svg width="1200pt" height="1200pt" version="1.1" viewBox="0 0 1200 1200" xmlns="http://www.w3.org/2000/svg">
 <path d="m1080.7 730.97-57.516-35.719c-70.641-43.828-70.641-146.63 0-190.45l57.562-35.719c29.344-18.188 38.344-56.766 20.156-86.062l-84.141-135.52c-18.188-29.344-56.766-38.344-86.062-20.156l-17.156 10.641c-74.672 46.359-171.19-7.3594-171.19-95.25v-20.203c0-34.547-27.984-62.531-62.531-62.531h-159.52c-34.547 0-62.531 27.984-62.531 62.531v20.203c0 87.891-96.562 141.61-171.19 95.25l-17.156-10.641c-29.344-18.188-67.875-9.1875-86.062 20.156l-84.141 135.52c-18.188 29.344-9.1875 67.875 20.156 86.062l57.516 35.719c70.641 43.828 70.641 146.63 0 190.45l-57.516 35.719c-29.344 18.188-38.344 56.766-20.156 86.062l84.141 135.52c18.188 29.344 56.766 38.344 86.062 20.156l17.156-10.641c74.672-46.359 171.19 7.3594 171.19 95.25v20.203c0 34.547 27.984 62.531 62.531 62.531h159.52c34.547 0 62.531-27.984 62.531-62.531v-20.203c0-87.891 96.516-141.61 171.19-95.25l17.156 10.641c29.344 18.188 67.875 9.1875 86.062-20.156l84.141-135.52c18.188-29.344 9.1875-67.875-20.156-86.062zm-480.71 64.312c-107.86 0-195.28-87.422-195.28-195.28 0-107.86 87.422-195.28 195.28-195.28s195.28 87.422 195.28 195.28c0 107.86-87.422 195.28-195.28 195.28z"/>
</svg>
