<?xml version="1.0" encoding="UTF-8"?>
<svg id="_레이어_2" data-name="레이어 2" xmlns="http://www.w3.org/2000/svg" xmlns:xlink="http://www.w3.org/1999/xlink" viewBox="0 0 389.89 138">
  <defs>
    <style>
      .cls-1 {
        fill: none;
      }

      .cls-2 {
        fill: url(#_무제_그라디언트_4);
      }

      .cls-3 {
        fill: url(#_무제_그라디언트_4-3);
      }

      .cls-4 {
        fill: url(#_무제_그라디언트_4-2);
      }

      .cls-5 {
        fill: #00001e;
        fill-rule: evenodd;
      }

      .cls-6 {
        clip-path: url(#clippath);
      }

      .cls-7 {
        fill: #222;
      }
    </style>
    <clipPath id="clippath">
      <rect class="cls-1" x="32.03" y="27.13" width="76.39" height="86.25"/>
    </clipPath>
    <linearGradient id="_무제_그라디언트_4" data-name="무제 그라디언트 4" x1="-250.75" y1="123.13" x2="-188.26" y2="84.68" gradientTransform="translate(287 174.51) scale(1 -1)" gradientUnits="userSpaceOnUse">
      <stop offset=".06" stop-color="#ecf2ff"/>
      <stop offset=".31" stop-color="#c1ceff"/>
      <stop offset=".64" stop-color="#8fa5ff"/>
      <stop offset=".8" stop-color="#7c95ff"/>
    </linearGradient>
    <linearGradient id="_무제_그라디언트_4-2" data-name="무제 그라디언트 4" x1="-249.85" y1="124.6" x2="-187.36" y2="86.11" xlink:href="#_무제_그라디언트_4"/>
    <linearGradient id="_무제_그라디언트_4-3" data-name="무제 그라디언트 4" x1="-248.93" y1="126.06" x2="-186.43" y2="87.61" xlink:href="#_무제_그라디언트_4"/>
  </defs>
  <g id="_레이어_1-2" data-name="레이어 1">
    <path class="cls-5" d="M138,43.17c0-1.65,0-3.3,0-4.94,0-1.39-.03-2.78-.06-4.16-.08-3.02-.26-6.07-.8-9.06-.54-3.04-1.43-5.86-2.84-8.62-1.38-2.71-3.18-5.19-5.33-7.34-2.15-2.15-4.63-3.95-7.34-5.33-2.76-1.4-5.58-2.29-8.61-2.84-2.99-.54-6.04-.72-9.07-.8-1.39-.04-2.78-.05-4.17-.06-1.65,0-3.3,0-4.94,0h-51.66c-1.65,0-3.3,0-4.94,0-1.39,0-2.78.03-4.17.06-3.02.08-6.08.26-9.07.8-3.03.55-5.86,1.44-8.61,2.84-2.71,1.38-5.19,3.18-7.34,5.33-2.15,2.15-3.95,4.63-5.33,7.34-1.41,2.76-2.3,5.58-2.84,8.62-.54,2.99-.72,6.04-.8,9.06-.04,1.39-.06,2.78-.06,4.16-.01,1.65-.01,3.3-.01,4.94v51.66c0,1.65,0,3.3.01,4.94,0,1.39.03,2.78.06,4.16.08,3.02.26,6.07.8,9.06.55,3.04,1.44,5.86,2.84,8.62,1.38,2.71,3.18,5.19,5.33,7.33,2.15,2.15,4.63,3.95,7.34,5.33,2.76,1.4,5.58,2.29,8.61,2.84,2.99.54,6.04.72,9.07.8,1.39.04,2.78.05,4.17.06,1.65,0,3.3,0,4.94,0h51.66c1.65,0,3.3,0,4.94,0,1.39,0,2.78-.03,4.17-.06,3.02-.08,6.07-.26,9.07-.8,3.03-.55,5.86-1.44,8.61-2.84,2.71-1.38,5.19-3.18,7.34-5.33,2.15-2.15,3.95-4.63,5.33-7.33,1.41-2.76,2.3-5.58,2.84-8.62.54-2.99.72-6.04.8-9.06.04-1.39.05-2.78.06-4.16,0-1.65,0-3.3,0-4.94v-51.66Z"/>
    <g class="cls-6">
      <g>
        <path class="cls-2" d="M63.65,30.49c0-1.99-2.21-3.36-4.34-3.36-1.01,0-2.01.32-2.74,1.05l-21.72,21.81c-1.81,1.82-2.82,4.13-2.82,6.57v29.99c0,1.99,2.21,3.36,4.34,3.36,1.01,0,2.01-.32,2.74-1.05l9.29-9.32v-11.27c0-4.05,1.61-7.9,4.59-10.86l10.7-10.74v-16.17h-.04Z"/>
        <path class="cls-4" d="M86.01,42.21c0-1.99-2.21-3.36-4.34-3.36-1.01,0-2.01.32-2.74,1.05l-9.29,9.32-3.02,3.04-3.02,3.04-6.44,6.44c-1.81,1.82-2.82,4.13-2.82,6.57v29.99c0,1.99,2.21,3.36,4.34,3.36,1.01,0,2.01-.33,2.74-1.05l9.29-9.32v-11.27c0-4.05,1.61-7.9,4.59-10.86l10.7-10.74v-16.21Z"/>
        <path class="cls-3" d="M104.09,50.58c-1.01,0-2.01.32-2.74,1.05l-9.29,9.32-3.02,3.04-3.02,3.04-6.44,6.44c-1.81,1.82-2.82,4.13-2.82,6.57v29.99c0,1.99,2.21,3.36,4.34,3.36,1.01,0,2.01-.32,2.74-1.05l21.72-21.85c1.81-1.82,2.82-4.13,2.82-6.57v-29.99c0-1.99-2.21-3.36-4.35-3.36h.04Z"/>
      </g>
    </g>
    <path class="cls-7" d="M182.65,102v-61.09h10.97v51.81h27v9.28h-37.97ZM237.36,102h-11.73l21.51-61.09h13.5l21.6,61.09h-11.73l-5.06-15.1h-23.04l-5.06,15.1ZM245.38,78.04h17.13l-8.35-24.64h-.51l-8.27,24.64ZM276.88,40.91h12.4l15.02,27h.59l15.02-27h12.4l-22.19,38.22v22.87h-10.97v-22.87l-22.27-38.22ZM345.35,40.91l15.86,48.18h.67l15.95-48.18h12.07l-21.6,61.09h-13.5l-21.52-61.09h12.07Z"/>
  </g>
</svg>