<svg width="22" height="22" viewBox="0 0 22 22" fill="none" xmlns="http://www.w3.org/2000/svg">
<circle opacity="0.45" cx="11" cy="11" r="11" fill="#E2EAFF"/>
<path fill-rule="evenodd" clip-rule="evenodd" d="M5.87572 7.75738C6.43661 7.16995 7.19723 6.83995 7.99033 6.83995C8.78343 6.83995 9.54406 7.16995 10.1049 7.75738L10.9813 8.6747L11.8577 7.75738C12.1336 7.45811 12.4636 7.2194 12.8285 7.05517C13.1934 6.89095 13.5859 6.80451 13.983 6.8009C14.3802 6.79728 14.774 6.87657 15.1416 7.03412C15.5092 7.19167 15.8431 7.42434 16.124 7.71854C16.4048 8.01275 16.6269 8.3626 16.7773 8.74769C16.9277 9.13278 17.0033 9.54539 16.9999 9.96145C16.9964 10.3775 16.9139 10.7887 16.7572 11.171C16.6004 11.5533 16.3726 11.899 16.0869 12.1881L10.9813 17.0008L5.87572 12.1881C5.315 11.6005 5 10.8036 5 9.97272C5 9.14185 5.315 8.34499 5.87572 7.75738Z" fill="white" stroke="white" stroke-width="0.8" stroke-linejoin="round"/>
</svg>
