<svg width="23" height="23" viewBox="0 0 23 23" fill="none" xmlns="http://www.w3.org/2000/svg">
<path d="M1.57082 18.7522C1.1732 19.1498 1.1732 19.7945 1.57082 20.1921C1.96843 20.5897 2.61309 20.5897 3.0107 20.1921L2.29076 19.4721L1.57082 18.7522ZM7.38154 14.3814L8.10148 13.6614C7.70387 13.2638 7.05921 13.2638 6.66159 13.6614L7.38154 14.3814ZM9.92692 16.9267L9.20698 17.6467C9.60459 18.0443 10.2493 18.0443 10.6469 17.6467L9.92692 16.9267ZM15.654 11.1996L16.374 10.4797C15.9764 10.0821 15.3317 10.0821 14.9341 10.4797L15.654 11.1996ZM20.0249 17.0103C20.4225 17.408 21.0672 17.408 21.4648 17.0103C21.8624 16.6127 21.8624 15.9681 21.4648 15.5704L20.7448 16.2904L20.0249 17.0103ZM2.29076 19.4721L3.0107 20.1921L8.10148 15.1013L7.38154 14.3814L6.66159 13.6614L1.57082 18.7522L2.29076 19.4721ZM7.38154 14.3814L6.66159 15.1013L9.20698 17.6467L9.92692 16.9267L10.6469 16.2068L8.10148 13.6614L7.38154 14.3814ZM9.92692 16.9267L10.6469 17.6467L16.374 11.9196L15.654 11.1996L14.9341 10.4797L9.20698 16.2068L9.92692 16.9267ZM15.654 11.1996L14.9341 11.9196L20.0249 17.0103L20.7448 16.2904L21.4648 15.5704L16.374 10.4797L15.654 11.1996ZM4.83615 1.01807V2.03622H17.5631V1.01807V-8.88109e-05H4.83615V1.01807ZM21.3812 4.83615H20.363V17.5631H21.3812H22.3993V4.83615H21.3812ZM17.5631 21.3812V20.363H4.83615V21.3812V22.3993H17.5631V21.3812ZM1.01807 17.5631H2.03622V4.83615H1.01807H-8.88109e-05V17.5631H1.01807ZM4.83615 21.3812V20.363C3.28979 20.363 2.03622 19.1094 2.03622 17.5631H1.01807H-8.88109e-05C-8.88109e-05 20.2341 2.16517 22.3993 4.83615 22.3993V21.3812ZM21.3812 17.5631H20.363C20.363 19.1094 19.1094 20.363 17.5631 20.363V21.3812V22.3993C20.2341 22.3993 22.3993 20.2341 22.3993 17.5631H21.3812ZM17.5631 1.01807V2.03622C19.1094 2.03622 20.363 3.28979 20.363 4.83615H21.3812H22.3993C22.3993 2.16517 20.2341 -8.88109e-05 17.5631 -8.88109e-05V1.01807ZM4.83615 1.01807V-8.88109e-05C2.16517 -8.88109e-05 -8.88109e-05 2.16517 -8.88109e-05 4.83615H1.01807H2.03622C2.03622 3.28979 3.28979 2.03622 4.83615 2.03622V1.01807ZM8.65423 6.74519H7.63608C7.63608 7.23721 7.23721 7.63608 6.74519 7.63608V8.65423V9.67239C8.36184 9.67239 9.67239 8.36184 9.67239 6.74519H8.65423ZM6.74519 8.65423V7.63608C6.25317 7.63608 5.8543 7.23721 5.8543 6.74519H4.83615H3.81799C3.81799 8.36184 5.12854 9.67239 6.74519 9.67239V8.65423ZM4.83615 6.74519H5.8543C5.8543 6.25317 6.25317 5.8543 6.74519 5.8543V4.83615V3.81799C5.12854 3.81799 3.81799 5.12854 3.81799 6.74519H4.83615ZM6.74519 4.83615V5.8543C7.23721 5.8543 7.63608 6.25317 7.63608 6.74519H8.65423H9.67239C9.67239 5.12854 8.36184 3.81799 6.74519 3.81799V4.83615Z" fill="white"/>
</svg>
