<svg width="30" height="30" viewBox="0 0 30 30" fill="none" xmlns="http://www.w3.org/2000/svg">
<circle cx="15" cy="15" r="15" fill="white"/>
<path d="M14.4668 8.6001C14.4668 8.23191 14.1683 7.93343 13.8001 7.93343C13.4319 7.93343 13.1334 8.23191 13.1334 8.6001H13.8001H14.4668ZM13.1334 21.4001C13.1334 21.7683 13.4319 22.0668 13.8001 22.0668C14.1683 22.0668 14.4668 21.7683 14.4668 21.4001H13.8001H13.1334ZM11.0001 8.6001V9.26676H19.0001V8.6001V7.93343H11.0001V8.6001ZM21.4001 11.0001H20.7334V19.0001H21.4001H22.0668V11.0001H21.4001ZM19.0001 21.4001V20.7334H11.0001V21.4001V22.0668H19.0001V21.4001ZM8.6001 19.0001H9.26676V11.0001H8.6001H7.93343V19.0001H8.6001ZM11.0001 21.4001V20.7334C10.0428 20.7334 9.26676 19.9574 9.26676 19.0001H8.6001H7.93343C7.93343 20.6938 9.30642 22.0668 11.0001 22.0668V21.4001ZM21.4001 19.0001H20.7334C20.7334 19.9574 19.9574 20.7334 19.0001 20.7334V21.4001V22.0668C20.6938 22.0668 22.0668 20.6938 22.0668 19.0001H21.4001ZM19.0001 8.6001V9.26676C19.9574 9.26676 20.7334 10.0428 20.7334 11.0001H21.4001H22.0668C22.0668 9.30642 20.6938 7.93343 19.0001 7.93343V8.6001ZM11.0001 8.6001V7.93343C9.30642 7.93343 7.93343 9.30642 7.93343 11.0001H8.6001H9.26676C9.26676 10.0428 10.0428 9.26676 11.0001 9.26676V8.6001ZM13.8001 8.6001H13.1334V21.4001H13.8001H14.4668V8.6001H13.8001ZM13.8001 15.0001V15.6668H21.0001V15.0001V14.3334H13.8001V15.0001Z" fill="#7C95FF"/>
</svg>
