<svg width="13" height="13" viewBox="0 0 13 13" fill="none" xmlns="http://www.w3.org/2000/svg">
<path d="M5.66885 0.600098C5.66885 0.268727 5.40022 9.76324e-05 5.06885 9.76324e-05C4.73748 9.76324e-05 4.46885 0.268727 4.46885 0.600098H5.06885H5.66885ZM4.46885 11.6001C4.46885 11.9315 4.73748 12.2001 5.06885 12.2001C5.40022 12.2001 5.66885 11.9315 5.66885 11.6001H5.06885H4.46885ZM2.6626 0.600098V1.2001H9.5376V0.600098V9.76324e-05H2.6626V0.600098ZM11.6001 2.6626H11.0001V9.5376H11.6001H12.2001V2.6626H11.6001ZM9.5376 11.6001V11.0001H2.6626V11.6001V12.2001H9.5376V11.6001ZM0.600098 9.5376H1.2001V2.6626H0.600098H9.76324e-05V9.5376H0.600098ZM2.6626 11.6001V11.0001C1.85488 11.0001 1.2001 10.3453 1.2001 9.5376H0.600098H9.76324e-05C9.76324e-05 11.0081 1.19214 12.2001 2.6626 12.2001V11.6001ZM11.6001 9.5376H11.0001C11.0001 10.3453 10.3453 11.0001 9.5376 11.0001V11.6001V12.2001C11.0081 12.2001 12.2001 11.0081 12.2001 9.5376H11.6001ZM9.5376 0.600098V1.2001C10.3453 1.2001 11.0001 1.85488 11.0001 2.6626H11.6001H12.2001C12.2001 1.19214 11.0081 9.76324e-05 9.5376 9.76324e-05V0.600098ZM2.6626 0.600098V9.76324e-05C1.19214 9.76324e-05 9.76324e-05 1.19214 9.76324e-05 2.6626H0.600098H1.2001C1.2001 1.85488 1.85488 1.2001 2.6626 1.2001V0.600098ZM5.06885 0.600098H4.46885V11.6001H5.06885H5.66885V0.600098H5.06885ZM5.06885 6.1001V6.7001H11.2563V6.1001V5.5001H5.06885V6.1001Z" fill="#616161"/>
</svg>
