<svg width="10" height="10" viewBox="0 0 10 10" fill="none" xmlns="http://www.w3.org/2000/svg">
<path d="M5 0C5.39435 0 5.71462 0.31957 5.71484 0.713867V4.28613H9.28613C9.68029 4.28636 9.99977 4.60584 10 5C10 5.39435 9.68043 5.71462 9.28613 5.71484H5.71484V9.28613C5.71462 9.68043 5.39435 10 5 10C4.60584 9.99977 4.28636 9.68029 4.28613 9.28613V5.71484H0.713867C0.319571 5.71462 -1.72376e-08 5.39435 0 5C0.000225804 4.60584 0.31971 4.28636 0.713867 4.28613H4.28613V0.713867C4.28636 0.31971 4.60584 0.000226023 5 0Z" fill="#616161"/>
</svg>
