<svg width="13" height="13" viewBox="0 0 13 13" fill="none" xmlns="http://www.w3.org/2000/svg">
<path d="M5.97732 1.72256H2.66019C1.561 1.72256 0.669922 2.61361 0.669922 3.71277V10.3469C0.669922 11.446 1.561 12.3371 2.66019 12.3371H9.29444C10.3936 12.3371 11.2847 11.446 11.2847 10.3469L11.2847 7.02982M3.98704 9.02L6.40079 8.53366C6.52893 8.50784 6.64659 8.44475 6.73899 8.35229L12.1424 2.94609C12.4015 2.68689 12.4013 2.26674 12.142 2.00776L10.9974 0.864451C10.7382 0.605576 10.3182 0.605752 10.0593 0.864845L4.65531 6.27161C4.56309 6.36388 4.50012 6.4813 4.47428 6.60917L3.98704 9.02Z" stroke="#B1B5C5" stroke-width="1.34062" stroke-linecap="round" stroke-linejoin="round"/>
</svg>
