<svg width="30" height="30" viewBox="0 0 30 30" fill="none" xmlns="http://www.w3.org/2000/svg">
<path d="M13.0663 18.5609C13.0876 15.7148 13.9584 14.844 15.4239 13.952C16.3054 13.421 16.9744 12.5714 16.9744 11.382C16.9744 9.93768 15.8487 9.01376 14.4469 9.02438C13.2362 9.01376 12.015 9.73591 11.8982 11.4882H9.96536C10.0716 8.90756 12.015 7.41018 14.4469 7.41018C17.1125 7.41018 18.8435 9.11996 18.8435 11.4669C18.8435 13.1342 18.0576 14.2918 16.7408 15.0989C15.4133 15.906 14.9354 16.7237 14.8929 18.5609V18.6671H13.0663V18.5609ZM12.684 21.7469C12.6628 21.0035 13.3 20.3875 14.0433 20.3875C14.7974 20.3875 15.4133 21.0035 15.4027 21.7469C15.4133 22.5009 14.7974 23.1168 14.0433 23.1274C13.3 23.1168 12.6628 22.5009 12.684 21.7469Z" fill="#7C95FF"/>
</svg>
