<svg width="14" height="16" viewBox="0 0 14 16" fill="none" xmlns="http://www.w3.org/2000/svg">
<path d="M0.600098 3.71121H12.6001M5.1001 6.82232V11.489M8.1001 6.82232V11.489M1.3501 3.71121L2.1001 13.0445C2.1001 13.4571 2.25813 13.8528 2.53944 14.1445C2.82074 14.4362 3.20227 14.6001 3.6001 14.6001H9.6001C9.99792 14.6001 10.3795 14.4362 10.6608 14.1445C10.9421 13.8528 11.1001 13.4571 11.1001 13.0445L11.8501 3.71121M4.3501 3.71121V1.37788C4.3501 1.1716 4.42912 0.973765 4.56977 0.827903C4.71042 0.682042 4.90119 0.600098 5.1001 0.600098H8.1001C8.29901 0.600098 8.48978 0.682042 8.63043 0.827903C8.77108 0.973765 8.8501 1.1716 8.8501 1.37788V3.71121" stroke="#616161" stroke-width="1.2" stroke-linecap="round" stroke-linejoin="round"/>
</svg>
