<svg width="16" height="18" viewBox="0 0 16 18" fill="none" xmlns="http://www.w3.org/2000/svg">
<path d="M7.92 14.08C7.09867 14.08 6.314 14.2083 5.566 14.465C4.818 14.7217 4.136 15.1067 3.52 15.62V15.84H12.32V15.62C11.704 15.1067 11.022 14.7217 10.274 14.465C9.526 14.2083 8.74133 14.08 7.92 14.08ZM1.76 14.828C2.552 14.0507 3.47233 13.4383 4.521 12.991C5.56967 12.5437 6.70267 12.32 7.92 12.32C9.13733 12.32 10.2703 12.5437 11.319 12.991C12.3677 13.4383 13.288 14.0507 14.08 14.828V3.52H1.76V14.828ZM7.92 10.56C7.06933 10.56 6.34333 10.2593 5.742 9.658C5.14067 9.05667 4.84 8.33067 4.84 7.48C4.84 6.62933 5.14067 5.90333 5.742 5.302C6.34333 4.70067 7.06933 4.4 7.92 4.4C8.77067 4.4 9.49667 4.70067 10.098 5.302C10.6993 5.90333 11 6.62933 11 7.48C11 8.33067 10.6993 9.05667 10.098 9.658C9.49667 10.2593 8.77067 10.56 7.92 10.56ZM7.92 8.8C8.28667 8.8 8.59833 8.67167 8.855 8.415C9.11167 8.15833 9.24 7.84667 9.24 7.48C9.24 7.11333 9.11167 6.80167 8.855 6.545C8.59833 6.28833 8.28667 6.16 7.92 6.16C7.55333 6.16 7.24167 6.28833 6.985 6.545C6.72833 6.80167 6.6 7.11333 6.6 7.48C6.6 7.84667 6.72833 8.15833 6.985 8.415C7.24167 8.67167 7.55333 8.8 7.92 8.8ZM1.76 17.6C1.276 17.6 0.861667 17.4277 0.517 17.083C0.172333 16.7383 0 16.324 0 15.84V3.52C0 3.036 0.172333 2.62167 0.517 2.277C0.861667 1.93233 1.276 1.76 1.76 1.76H2.64V0.88C2.64 0.630667 2.72433 0.421667 2.893 0.253C3.06167 0.0843333 3.27067 0 3.52 0C3.76933 0 3.97833 0.0843333 4.147 0.253C4.31567 0.421667 4.4 0.630667 4.4 0.88V1.76H11.44V0.88C11.44 0.630667 11.5243 0.421667 11.693 0.253C11.8617 0.0843333 12.0707 0 12.32 0C12.5693 0 12.7783 0.0843333 12.947 0.253C13.1157 0.421667 13.2 0.630667 13.2 0.88V1.76H14.08C14.564 1.76 14.9783 1.93233 15.323 2.277C15.6677 2.62167 15.84 3.036 15.84 3.52V15.84C15.84 16.324 15.6677 16.7383 15.323 17.083C14.9783 17.4277 14.564 17.6 14.08 17.6H1.76Z" fill="#1C1B1F"/>
</svg>
